<svg width="717" height="717" viewBox="0 0 717 717" fill="none" xmlns="http://www.w3.org/2000/svg"><ellipse cx="359" cy="560" rx="135" ry="32" fill="#000" fill-opacity=".15"/><mask id="a" maskUnits="userSpaceOnUse" x="255.977" y="428.585" width="202" height="152" fill="#000"><path fill="#fff" d="M255.977 428.585h202v152h-202z"/><path fill-rule="evenodd" clip-rule="evenodd" d="M364.977 446.585a8 8 0 00-8-8 8 8 0 00-8 8v70.479c0 9.787-7.832 17.721-17.592 18.443-37.799 2.794-65.408 11.621-65.408 22.078 0 .541.353.996.852 1.205 16.66 6.998 50.772 11.795 90.148 11.795 39.375 0 73.488-4.797 90.148-11.795.499-.209.852-.664.852-1.205 0-10.457-27.609-19.284-65.408-22.078-9.76-.722-17.592-8.656-17.592-18.443v-70.479z"/></mask><path fill-rule="evenodd" clip-rule="evenodd" d="M364.977 446.585a8 8 0 00-8-8 8 8 0 00-8 8v70.479c0 9.787-7.832 17.721-17.592 18.443-37.799 2.794-65.408 11.621-65.408 22.078 0 .541.353.996.852 1.205 16.66 6.998 50.772 11.795 90.148 11.795 39.375 0 73.488-4.797 90.148-11.795.499-.209.852-.664.852-1.205 0-10.457-27.609-19.284-65.408-22.078-9.76-.722-17.592-8.656-17.592-18.443v-70.479z" fill="#00B8F0"/><path d="M266.829 558.79l3.873-9.219-3.873 9.219zm180.296 0l3.873 9.22-3.873-9.22zm-64.556-23.283l-.738 9.973.738-9.973zm-51.184 0l.737 9.973-.737-9.973zm27.592-18.443v-70.479h-20v70.479h20zm-83 40.521c0 2.121-1.373 2.209.835.583 1.98-1.458 5.501-3.23 10.847-5.006 10.569-3.511 26.034-6.32 44.463-7.682l-1.474-19.946c-19.37 1.432-36.609 4.434-49.295 8.648-6.281 2.087-12.024 4.658-16.402 7.883-4.15 3.057-8.974 8.17-8.974 15.52h20zm-5.275-8.014c2.583 1.085 5.275 3.886 5.275 8.014h-20c0 5.21 3.399 8.921 6.979 10.425l7.746-18.439zm86.275 11.014c-39.092 0-71.534-4.822-86.275-11.014l-7.746 18.439c18.578 7.804 54.361 12.575 94.021 12.575v-20zm86.275-11.014c-14.741 6.192-47.184 11.014-86.275 11.014v20c39.66 0 75.442-4.771 94.021-12.575l-7.746-18.439zm-5.275 8.014c0-4.128 2.692-6.929 5.275-8.014l7.746 18.439c3.58-1.504 6.979-5.215 6.979-10.425h-20zm-56.146-12.105c18.43 1.362 33.894 4.171 44.463 7.682 5.346 1.776 8.868 3.548 10.848 5.006 2.207 1.626.835 1.538.835-.583h20c0-7.35-4.824-12.463-8.974-15.52-4.378-3.225-10.121-5.796-16.403-7.883-12.685-4.214-29.924-7.216-49.294-8.648l-1.475 19.946zm-26.854-98.895v70.479h20v-70.479h-20zm28.329 78.949c-4.877-.361-8.329-4.253-8.329-8.47h-20c0 15.357 12.211 27.333 26.854 28.416l1.475-19.946zm-44.329-8.47c0 4.217-3.453 8.109-8.329 8.47l1.474 19.946c14.644-1.083 26.855-13.059 26.855-28.416h-20zm18-68.479a2 2 0 01-2-2h20c0-9.941-8.059-18-18-18v20zm0-20c-9.941 0-18 8.059-18 18h20a2 2 0 01-2 2v-20z" fill="#45413C" mask="url(#a)"/><mask id="b" maskUnits="userSpaceOnUse" x="250.977" y="178.957" width="212" height="304" fill="#000"><path fill="#fff" d="M250.977 178.957h212v304h-212z"/><path fill-rule="evenodd" clip-rule="evenodd" d="M437.755 190.011a1.005 1.005 0 011.323.889l13.896 181.643a.04.04 0 01-.039.042.038.038 0 00-.038.04c.053 1.313.08 2.633.08 3.96 0 53.019-42.981 96-96 96s-96-42.981-96-96c0-1.327.027-2.647.08-3.96a.038.038 0 00-.038-.04.039.039 0 01-.039-.042L274.876 190.9a1.005 1.005 0 011.323-.889c6.743 2.294 40.566 13.074 80.778 13.074 40.211 0 74.035-10.78 80.778-13.074z"/></mask><path fill-rule="evenodd" clip-rule="evenodd" d="M437.755 190.011a1.005 1.005 0 011.323.889l13.896 181.643a.04.04 0 01-.039.042.038.038 0 00-.038.04c.053 1.313.08 2.633.08 3.96 0 53.019-42.981 96-96 96s-96-42.981-96-96c0-1.327.027-2.647.08-3.96a.038.038 0 00-.038-.04.039.039 0 01-.039-.042L274.876 190.9a1.005 1.005 0 011.323-.889c6.743 2.294 40.566 13.074 80.778 13.074 40.211 0 74.035-10.78 80.778-13.074z" fill="#00B8F0"/><path d="M356.977 203.085v-10 10zM274.876 190.9l-9.971-.763 9.971.763zm1.323-.889l-3.221 9.467 3.221-9.467zM260.98 372.543l-9.971-.763 9.971.763zm191.917.082l-9.992.405 9.992-.405zm-191.84 0l9.992.405-9.992-.405zM439.078 190.9l-9.971.763 9.971-.763zm-1.323-.889l3.221 9.467-3.221-9.467zm15.219 182.532l-9.971.763 9.971-.763zm9.971-.763l-13.897-181.643-19.941 1.526 13.896 181.643 19.942-1.526zm.032 4.805c0-1.462-.03-2.917-.088-4.366l-19.984.811a87.31 87.31 0 01.072 3.555h20zm-106 106c58.542 0 106-47.458 106-106h-20c0 47.496-38.504 86-86 86v20zm0-20c-47.497 0-86-38.504-86-86h-20c0 58.542 47.458 106 106 106v-20zm-86-86c0-1.192.024-2.377.072-3.555l-19.984-.811a109.136 109.136 0 00-.088 4.366h20zm-.026-3.279l13.896-181.643-19.942-1.526-13.896 181.643 19.942 1.526zm2.027-173.828c7.187 2.445 42.204 13.607 83.999 13.607v-20c-38.628 0-71.258-10.398-77.557-12.541l-6.442 18.934zm161.556-18.934c-6.299 2.143-38.929 12.541-77.557 12.541v20c41.795 0 76.812-11.162 83.999-13.607l-6.442-18.934zm-149.687 11.119c-.428 5.599-6.072 9.787-11.869 7.815l6.442-18.934c-7.051-2.399-13.985 2.673-14.515 9.593l19.942 1.526zm-23.828 170.922c5.801 0 10.374 4.937 9.932 10.721l-19.942-1.526c-.446 5.829 4.164 10.805 10.01 10.805v-20zm191.916 0c-5.705 0-10.261 4.747-10.03 10.445l19.984-.811c.229 5.654-4.292 10.366-9.954 10.366v-20zM271.049 373.03c.231-5.698-4.325-10.445-10.03-10.445v20c-5.662 0-10.183-4.712-9.954-10.366l19.984.811zm177.999-182.893c-.529-6.92-7.463-11.992-14.514-9.593l6.442 18.934c-5.797 1.972-11.441-2.216-11.869-7.815l19.941-1.526zm-6.045 183.169c-.443-5.784 4.131-10.721 9.932-10.721v20c5.846 0 10.456-4.976 10.01-10.805l-19.942 1.526z" fill="#45413C" mask="url(#b)"/><ellipse cx="356.977" cy="260.585" rx="74" ry="14" fill="#BC5E00"/><path fill-rule="evenodd" clip-rule="evenodd" d="M388.116 201.06a281.013 281.013 0 0025.874-4.531l-3.29 108.576a2.001 2.001 0 01-2.06 1.939l-21.715-.658a2 2 0 01-1.938-2.06l3.129-103.266z" fill="#9F5AE5"/><path d="M388.116 201.06l-.629-4.961-4.239.537-.13 4.272 4.998.152zm25.874-4.531l4.997.151.195-6.436-6.283 1.405 1.091 4.88zm-3.29 108.576l4.997.151-4.997-.151zm-2.06 1.939l-.152 4.997.152-4.997zm-21.715-.658l.152-4.998-.152 4.998zm-1.938-2.06l-4.998-.152 4.998.152zm3.757-98.306a285.838 285.838 0 0026.337-4.612l-2.182-9.759a275.756 275.756 0 01-25.412 4.45l1.257 9.921zm26.953 99.236l3.29-108.576-9.995-.303-3.29 108.577 9.995.302zm-7.209 6.785a7 7 0 007.209-6.785l-9.995-.302a3 3 0 013.089-2.908l-.303 9.995zm-21.714-.658l21.714.658.303-9.995-21.714-.658-.303 9.995zm-6.785-7.209a7 7 0 006.785 7.209l.303-9.995a2.998 2.998 0 012.907 3.089l-9.995-.303zm3.129-103.266l-3.129 103.266 9.995.303 3.13-103.266-9.996-.303z" fill="#45413C"/><path fill-rule="evenodd" clip-rule="evenodd" d="M286.041 260.585h-3.068l-6.994 102.429a.033.033 0 00.033.035c.019 0 .033.015.033.034a103.517 103.517 0 00-.068 3.747c0 50.122 36.265 90.755 81 90.755s81-40.633 81-90.755c0-1.255-.023-2.505-.068-3.747a.032.032 0 01.033-.034.033.033 0 00.033-.035l-6.994-102.429h-3.069c-9.097 5.783-37.413 10-70.935 10-33.522 0-61.838-4.217-70.936-10z" fill="#FF8A14"/><path fill-rule="evenodd" clip-rule="evenodd" d="M286.041 260.585h-3.068l-6.994 102.429a.033.033 0 00.033.035c.019 0 .033.015.033.034a103.517 103.517 0 00-.068 3.747c0 50.122 36.265 90.755 81 90.755s81-40.633 81-90.755c0-1.255-.023-2.505-.068-3.747a.032.032 0 01.033-.034.033.033 0 00.033-.035l-6.994-102.429h-3.069c-9.097 5.783-37.413 10-70.935 10-33.522 0-61.838-4.217-70.936-10z" fill="#FF8A14"/><path fill-rule="evenodd" clip-rule="evenodd" d="M276.487 377.073c4.541 45.3 38.846 80.512 80.49 80.512 41.782 0 76.176-35.446 80.534-80.963-26.239 5.867-53.525 8.963-81.534 8.963-27.282 0-53.879-2.937-79.49-8.512z" fill="#FF6242"/><path fill-rule="evenodd" clip-rule="evenodd" d="M271.025 419.39c-6.431-12.887-10.048-27.424-10.048-42.805 0-1.327.027-2.647.08-3.96a.038.038 0 00-.038-.04.039.039 0 01-.039-.042L274.876 190.9a1.005 1.005 0 011.323-.889c6.743 2.294 40.566 13.074 80.778 13.074 40.211 0 74.035-10.78 80.778-13.074a1.005 1.005 0 011.323.889l5.972 78.067c-26.824 76.588-92.855 134.752-174.025 150.423z" fill="#fff" fill-opacity=".29"/><mask id="c" maskUnits="userSpaceOnUse" x="269.534" y="166.087" width="178" height="47" fill="#000"><path fill="#fff" d="M269.534 166.087h178v47h-178z"/><path fill-rule="evenodd" clip-rule="evenodd" d="M280.335 191.349c-1.068-.331-1.069-3.198 0-3.528 11.7-3.624 41.258-11.581 75.637-11.734a1 1 0 011.005.998v12.5-12.5a1 1 0 011.004-.998c37.541.167 69.332 9.639 78.402 12.614a.92.92 0 010 1.768c-9.15 3.001-41.429 12.616-79.406 12.616-34.807 0-64.828-8.077-76.642-11.736z"/></mask><path fill-rule="evenodd" clip-rule="evenodd" d="M280.335 191.349c-1.068-.331-1.069-3.198 0-3.528 11.7-3.624 41.258-11.581 75.637-11.734a1 1 0 011.005.998v12.5-12.5a1 1 0 011.004-.998c37.541.167 69.332 9.639 78.402 12.614a.92.92 0 010 1.768c-9.15 3.001-41.429 12.616-79.406 12.616-34.807 0-64.828-8.077-76.642-11.736z" fill="#00B8F0"/><path d="M436.383 188.701l-3.116 9.502 3.116-9.502zm-79.406-11.616h10-10zm-76.642 10.736l-2.959-9.553 2.959 9.553zm75.593-21.734c-35.759.159-66.374 8.41-78.552 12.181l5.917 19.105c11.223-3.476 39.724-11.139 72.724-11.286l-.089-20zm11.049 23.498v-12.5h-20v12.5h20zm-20-12.5v12.5h20v-12.5h-20zm92.523 2.114c-9.53-3.126-42.448-12.938-81.474-13.112l-.089 20c36.055.16 66.719 9.292 75.33 12.116l6.233-19.004zm-82.523 33.886c39.487 0 72.912-9.962 82.523-13.114l-6.233-19.004c-8.691 2.85-39.824 12.118-76.29 12.118v20zm-79.601-12.184c12.293 3.807 43.389 12.184 79.601 12.184v-20c-33.403 0-62.349-7.778-73.684-11.289l-5.917 19.105zm155.891-2.698c-8.292-2.72-8.292-14.517 0-17.236l6.233 19.004c10.064-3.301 10.064-17.471 0-20.772l-6.233 19.004zm-66.29-21.118c0 5.016-4.081 9.024-9.04 9.002l.089-20c-6.064-.027-11.049 4.877-11.049 10.998h20zm-89.601 1.183c-4.323 1.339-6.205 4.748-6.873 6.35-.757 1.816-.969 3.584-.969 4.967 0 1.383.212 3.15.969 4.966.668 1.603 2.55 5.011 6.873 6.35l5.917-19.105a8.988 8.988 0 015.671 5.062c.49 1.175.57 2.143.57 2.727 0 .583-.08 1.551-.57 2.727a8.99 8.99 0 01-5.671 5.061l-5.917-19.105zm78.641 7.819c-4.959.022-9.04-3.986-9.04-9.002h20c0-6.121-4.985-11.025-11.049-10.998l.089 20z" fill="#45413C" mask="url(#c)"/><mask id="d" maskUnits="userSpaceOnUse" x="194.108" y="116.367" width="133.284" height="118.094" fill="#000"><path fill="#fff" d="M194.108 116.367h133.284v118.094H194.108z"/><path fill-rule="evenodd" clip-rule="evenodd" d="M247.665 154.106c-20.98 13.415-28.571 39.877-18.95 62.007 1.761 4.052 6.778 5.124 10.501 2.744l70.769-45.251c3.723-2.38 4.854-7.384 1.915-10.683-16.05-18.018-43.255-22.231-64.235-8.817z"/></mask><path fill-rule="evenodd" clip-rule="evenodd" d="M247.665 154.106c-20.98 13.415-28.571 39.877-18.95 62.007 1.761 4.052 6.778 5.124 10.501 2.744l70.769-45.251c3.723-2.38 4.854-7.384 1.915-10.683-16.05-18.018-43.255-22.231-64.235-8.817z" fill="#D6B027"/><path d="M311.9 162.923l-5.973 5.321 5.973-5.321zm-83.185 53.19l-7.337 3.189 7.337-3.189zm10.501 2.744l4.309 6.74-4.309-6.74zm-3.164-5.934c-8.079-18.583-1.694-40.812 15.923-52.077l-8.619-13.479c-24.343 15.565-33.14 46.259-21.978 71.935l14.674-6.379zm69.624-46.057l-70.77 45.251 8.619 13.48 70.77-45.251-8.619-13.48zm-53.701-6.02c17.617-11.264 40.474-7.732 53.952 7.398l11.947-10.642c-18.623-20.907-50.175-25.801-74.518-10.235l8.619 13.479zm62.32 19.5c7.094-4.536 10.377-15.113 3.579-22.744l-11.947 10.642a1.492 1.492 0 01-.311-.606 1.28 1.28 0 01-.028-.554c.041-.211.122-.24.088-.218l8.619 13.48zm-92.917 38.956c4.075 9.373 15.053 10.831 22.147 6.295l-8.619-13.48c-.035.022.026-.04.235.011.117.029.298.101.491.258.206.168.347.37.42.537l-14.674 6.379z" fill="#45413C" mask="url(#d)"/><path fill-rule="evenodd" clip-rule="evenodd" d="M309.143 174.145c-12.198-19.078-37.552-24.654-56.629-12.456-19.078 12.198-24.654 37.552-12.456 56.629l69.085-44.173z" fill="#FFEDAF"/><path fill-rule="evenodd" clip-rule="evenodd" d="M413.868 200.556l1.193-39.372c.012-.403.146-.793.384-1.118l53.359-73.07a2 2 0 00-.436-2.794l-17.551-12.817a2 2 0 00-2.79.43l-58.029 78.812c-.24.327-.376.72-.388 1.125l-1.616 53.323a280.827 280.827 0 0025.874-4.519z" fill="#9F5AE5"/><path d="M413.868 200.556l1.088 4.88 3.792-.846.117-3.882-4.997-.152zm1.193-39.372l-4.998-.151 4.998.151zm.384-1.118l-4.038-2.949 4.038 2.949zm53.359-73.07l4.038 2.949-4.038-2.949zm-.436-2.794l2.949-4.038-2.949 4.038zm-17.551-12.817l2.949-4.038-2.949 4.038zm-2.79.43l4.026 2.964-4.026-2.965zm-58.029 78.812l-4.026-2.964 4.026 2.964zm-.388 1.125l-4.998-.151 4.998.151zm-1.616 53.323l-4.998-.152-.177 5.845 5.801-.732-.626-4.961zm30.871-4.367l1.193-39.372-9.995-.303-1.193 39.372 9.995.303zm1.193-39.372a3 3 0 01-.575 1.678l-8.076-5.897a6.998 6.998 0 00-1.344 3.916l9.995.303zm-.575 1.678l53.359-73.069-8.076-5.897-53.359 73.069 8.076 5.897zm53.359-73.069a7 7 0 00-1.525-9.781l-5.898 8.076a3 3 0 01-.653-4.192l8.076 5.897zm-1.525-9.781l-17.551-12.817-5.898 8.076 17.551 12.817 5.898-8.076zm-17.551-12.817a7 7 0 00-9.765 1.503l8.052 5.929a3 3 0 01-4.185.644l5.898-8.076zm-9.765 1.503l-58.029 78.813 8.053 5.929 58.028-78.813-8.052-5.93zm-58.029 78.813a7.003 7.003 0 00-1.36 3.938l9.996.303a3.006 3.006 0 01-.583 1.688l-8.053-5.929zm-1.36 3.938l-1.616 53.322 9.996.303 1.616-53.322-9.996-.303zm4.008 58.435a285.627 285.627 0 0026.336-4.6l-2.177-9.76a275.602 275.602 0 01-25.411 4.438l1.252 9.922z" fill="#45413C"/></svg>